# Blender v3.6.4 OBJ File: 'Car1.blend'
# www.blender.org
mtllib Car1.mtl
o Cube_Cube.002
v -1.581046 -0.293745 1.005655
v -1.864064 0.209559 1.005654
v 1.847192 0.258699 -2.877760
v 0.000000 0.049578 -3.230068
v 1.581046 -0.293745 1.005655
v 1.864064 0.209559 1.005654
v -1.588030 -0.294513 -3.002910
v -1.847192 0.258699 -2.877760
v -1.239515 -0.184395 3.007416
v -1.226002 0.583424 2.836306
v 1.226002 0.583424 2.836306
v 1.239515 -0.184395 3.007416
v -0.936588 1.557398 0.237946
v -1.080830 1.498672 -1.610599
v 1.080830 1.498672 -1.610599
v 0.936588 1.557398 0.237946
v -1.864064 0.243345 1.860888
v 1.864064 0.243345 1.860888
v 1.581046 -0.293745 2.195702
v -1.581046 -0.304092 1.991571
v 0.000000 0.826052 -2.939772
v 0.000000 1.016364 -2.207537
v 0.000000 -0.293745 1.036145
v 0.000000 0.925470 0.675031
v 0.000000 -0.293745 3.289548
v 0.000000 0.431854 3.289548
v 0.000000 1.525493 -1.730094
v 0.000000 1.502673 0.275797
v 0.000000 -0.293745 1.831932
v 0.000000 0.828614 1.900283
v -1.581046 -0.293745 0.743134
v -1.442190 0.870745 0.712882
v 1.442190 0.870745 0.712882
v 1.581046 -0.293745 0.743134
v 0.000000 -0.293745 0.743134
v 1.660551 0.887501 2.038275
v -1.660551 0.887501 2.038275
v 0.000000 -0.293745 2.075556
v -1.581046 -0.293745 2.195702
v 1.581046 -0.304092 1.991571
v -1.858013 0.258213 -2.251941
v -1.578212 -0.293926 -2.042574
v 0.000000 -0.293926 -2.242074
v 1.858013 0.258213 -2.251941
v 1.578212 -0.293926 -2.042574
v 1.589315 -0.107757 -3.230068
v -1.344409 1.034153 -2.044352
v -1.581010 -0.293745 -1.997512
v 0.000000 -0.293745 -1.997512
v 1.344409 1.034153 -2.044352
v 1.581010 -0.293745 -1.997512
v 1.578062 0.826052 -2.939772
v 1.588030 -0.294513 -3.002910
v 0.000000 -0.189773 -2.984952
v -1.589315 -0.107757 -3.230068
v -1.578062 0.826052 -2.939772
v 0.000000 0.237816 -3.758080
v 0.000000 1.014290 -3.467784
v 1.589315 0.390344 -3.758080
v 1.553829 1.014290 -3.467784
v -1.589315 0.390344 -3.758080
v -1.553829 1.014290 -3.467784
v -1.527433 0.984855 -2.940210
v 0.000000 0.984855 -2.940210
v 1.527433 0.984855 -2.940210
v -1.695588 1.311075 -3.366985
v 0.000000 1.311075 -3.366985
v 1.695588 1.311075 -3.366985
v 1.710271 0.005653 -2.072567
v -1.581046 -0.265192 0.743134
v -1.712723 -0.009721 -2.068713
v 0.000000 0.827007 0.743134
v -1.502270 0.937929 0.537220
v 0.000000 1.601136 0.207694
v -1.078818 1.498303 0.148470
v 1.078818 1.498303 0.148470
v 1.502270 0.937929 0.537220
v 1.154163 1.016364 -2.207537
v 0.852588 1.525493 -1.730094
v 1.011032 1.601136 0.207694
v 1.581046 0.827007 0.743134
v -1.581046 0.827007 0.743134
v -1.011032 1.601136 0.207694
v -0.852588 1.525493 -1.730094
v -1.154163 1.016364 -2.207537
v 0.000000 0.940721 -2.278472
v 1.402218 0.940721 -2.278472
v 0.000000 1.601136 -1.659159
v 1.011032 1.601136 -1.659159
v -1.011032 1.601136 -1.659159
v -1.402218 0.940721 -2.278472
v 0.889299 0.940721 -2.278471
v 1.002713 -0.293745 0.743134
v 0.786111 -0.239070 3.148481
v 0.641205 1.601136 -1.659159
v 1.053136 0.984813 1.969279
v 1.002691 -0.293745 -1.997512
v 1.002713 0.827007 0.743134
v 0.777542 0.507639 3.062927
v 0.641205 1.601136 0.207694
v 1.002713 -0.293745 2.135629
v 1.301222 -0.293745 1.005655
v 1.301222 -0.298918 1.977317
v 1.007957 -0.029090 -3.230068
v 1.000821 0.826052 -2.939772
v 1.282441 -0.293926 -2.041999
v 1.290419 -0.242143 -3.006427
v 1.007957 0.314080 -3.758080
v 0.985452 1.014289 -3.467783
v 0.968711 0.984855 -2.940210
v 1.075357 1.311075 -3.366984
v 0.914650 0.898107 0.693956
v 0.593993 1.530035 0.256872
v 0.731980 1.016364 -2.207537
v 0.540719 1.525493 -1.730093
v -1.002691 -0.293745 -1.997512
v -1.002713 0.827007 0.743134
v -0.777542 0.507639 3.062927
v -0.641205 1.601136 0.207694
v -1.002713 -0.293745 2.135629
v -0.889299 0.940721 -2.278471
v -1.002713 -0.293745 0.743134
v -0.786111 -0.239070 3.148481
v -0.641205 1.601136 -1.659159
v -1.053136 0.984813 1.969279
v -1.301222 -0.298918 1.977317
v -1.301222 -0.293745 1.005655
v -1.000821 0.826052 -2.939772
v -1.007957 -0.029090 -3.230068
v -1.282441 -0.293926 -2.041999
v -1.290419 -0.242143 -3.006427
v -0.985452 1.014289 -3.467783
v -1.007957 0.314080 -3.758080
v -0.968711 0.984855 -2.940210
v -1.075357 1.311075 -3.366984
v -0.914650 0.898107 0.693956
v -0.593993 1.530035 0.256872
v -0.731980 1.016364 -2.207537
v -0.540719 1.525493 -1.730093
v -1.301222 0.253681 1.977317
v -1.301222 0.258855 1.005655
v 1.301222 0.210126 1.005655
v 1.301222 0.204952 1.977317
v -1.282441 0.259400 -2.116765
v -1.290419 0.311183 -3.006427
v 1.282440 0.258033 -2.167785
v 1.290419 0.309816 -2.982028
v -1.581028 -0.293745 -0.627189
v -1.647182 0.883864 -0.767669
v 1.581028 -0.293745 -0.627189
v 1.647182 0.883864 -0.767669
v -1.011032 1.601136 -0.725733
v 1.011032 1.601136 -0.725732
v 0.000000 1.601136 -0.725732
v 0.000000 -0.293745 -0.627189
v 1.817338 -0.144046 -0.664717
v -1.818628 -0.137457 -0.662789
v -1.423340 0.986041 -0.753566
v 1.423340 0.986041 -0.753566
v -1.079824 1.498488 -0.731065
v 1.079824 1.498488 -0.731065
v 0.641205 1.601136 -0.725733
v 1.002702 -0.293745 -0.627189
v -1.002702 -0.293745 -0.627189
v -0.641205 1.601136 -0.725733
vt 0.328132 0.555902
vt 0.297556 0.555563
vt 0.303417 0.454145
vt 0.335505 0.447200
vt 0.372097 0.801944
vt 0.498468 0.792931
vt 0.470481 0.872619
vt 0.390229 0.901829
vt 0.066649 0.531785
vt 0.084653 0.536586
vt 0.098064 0.699703
vt 0.065372 0.689997
vt 0.226957 0.197687
vt 0.178995 0.211964
vt 0.151340 0.130795
vt 0.159671 0.087459
vt 0.767827 0.539518
vt 0.766200 0.367728
vt 0.818039 0.367236
vt 0.819665 0.539026
vt 0.397358 0.943651
vt 0.478294 0.915419
vt 0.050836 0.201479
vt 0.070231 0.100375
vt 0.878192 0.819694
vt 0.929957 0.827730
vt 0.906432 0.930161
vt 0.864859 0.946993
vt 0.881478 0.473321
vt 0.933316 0.473812
vt 0.931689 0.645602
vt 0.879851 0.645111
vt 0.644868 0.456073
vt 0.652713 0.562471
vt 0.621237 0.555813
vt 0.614923 0.456561
vt 0.595275 0.656286
vt 0.545443 0.640663
vt 0.623284 0.562747
vt 0.651778 0.573706
vt 0.272070 0.747912
vt 0.234918 0.733419
vt 0.294751 0.669868
vt 0.319662 0.676881
vt 0.266456 0.342860
vt 0.212042 0.365128
vt 0.585555 0.664951
vt 0.638812 0.686701
vt 0.592775 0.821843
vt 0.545622 0.807387
vt 0.389560 0.479502
vt 0.406270 0.474355
vt 0.392055 0.632775
vt 0.544365 0.460125
vt 0.543213 0.310322
vt 0.597082 0.362655
vt 0.602671 0.456708
vt 0.588865 0.268408
vt 0.625148 0.254003
vt 0.660225 0.330652
vt 0.635877 0.337664
vt 0.276417 0.351682
vt 0.327310 0.335671
vt 0.363521 0.424426
vt 0.334500 0.435740
vt 0.764541 0.193144
vt 0.712776 0.201180
vt 0.709635 0.049014
vt 0.751208 0.065846
vt 0.077866 0.058035
vt 0.085501 0.015695
vt 0.168002 0.044123
vt 0.486108 0.958219
vt 0.065631 0.339613
vt 0.071242 0.373469
vt 0.067925 0.373572
vt 0.446952 0.672106
vt 0.388410 0.665874
vt 0.532298 0.643200
vt 0.879503 0.681844
vt 0.827664 0.681353
vt 0.828012 0.644619
vt 0.438249 0.755163
vt 0.125155 0.334362
vt 0.117430 0.249695
vt 0.764896 0.229742
vt 0.713068 0.231722
vt 0.052647 0.242293
vt 0.374336 0.761711
vt 0.765852 0.330994
vt 0.817690 0.330503
vt 0.878547 0.783097
vt 0.930376 0.785077
vt 0.258420 0.755860
vt 0.303970 0.774071
vt 0.278566 0.846826
vt 0.231415 0.834258
vt 0.575455 0.260708
vt 0.530973 0.278802
vt 0.502502 0.196709
vt 0.548574 0.184135
vt 0.225472 0.552260
vt 0.225756 0.399152
vt 0.290190 0.459373
vt 0.285039 0.555482
vt 0.098602 0.740728
vt 0.212869 0.737649
vt 0.769653 0.742028
vt 0.717907 0.742458
vt 0.717617 0.711799
vt 0.769454 0.711308
vt 0.385522 0.300032
vt 0.419161 0.276414
vt 0.420485 0.315935
vt 0.387065 0.326229
vt 0.883304 0.270810
vt 0.935051 0.271241
vt 0.934943 0.302022
vt 0.883105 0.301531
vt 0.409396 0.226773
vt 0.884102 0.177652
vt 0.831635 0.176335
vt 0.828600 0.133491
vt 0.881543 0.136648
vt 0.372097 0.223506
vt 0.384859 0.194039
vt 0.770451 0.835186
vt 0.822918 0.833869
vt 0.820835 0.873033
vt 0.767892 0.876190
vt 0.050836 0.795108
vt 0.088933 0.791534
vt 0.184264 0.821690
vt 0.064062 0.825138
vt 0.163911 0.883769
vt 0.193653 0.841079
vt 0.189589 0.877284
vt 0.823286 0.063414
vt 0.875777 0.056214
vt 0.814617 0.963824
vt 0.762126 0.956624
vt 0.417400 0.121902
vt 0.482222 0.136077
vt 0.272993 0.865408
vt 0.233323 0.853243
vt 0.097760 0.898651
vt 0.431114 0.075128
vt 0.444828 0.028354
vt 0.530711 0.070376
vt 0.506466 0.103227
vt 0.112060 0.946362
vt 0.188886 0.917187
vt 0.550329 0.165543
vt 0.511576 0.177680
vt 0.507388 0.142273
vt 0.533257 0.117219
vt 0.242760 0.928167
vt 0.216174 0.902726
vt 0.559125 0.092164
vt 0.531636 0.461001
vt 0.212456 0.551389
vt 0.064056 0.716816
vt 0.225523 0.367693
vt 0.367593 0.440254
vt 0.305478 0.447054
vt 0.645107 0.671909
vt 0.608610 0.357309
vt 0.545516 0.609927
vt 0.608260 0.550761
vt 0.225187 0.705368
vt 0.279888 0.651591
vt 0.291694 0.656981
vt 0.769653 0.742028
vt 0.770451 0.835186
vt 0.552582 0.282814
vt 0.665437 0.342040
vt 0.637023 0.349675
vt 0.611529 0.344675
vt 0.309222 0.762406
vt 0.320759 0.664605
vt 0.619936 0.242615
vt 0.680271 0.584666
vt 0.684190 0.569130
vt 0.594646 0.171560
vt 0.589082 0.153407
vt 0.934486 0.139805
vt 0.928267 0.049014
vt 0.936569 0.178969
vt 0.831558 0.270380
vt 0.831268 0.301040
vt 0.826719 0.781116
vt 0.826427 0.811658
vt 0.931341 0.682335
vt 0.674813 0.455585
vt 0.829640 0.472830
vt 0.823286 0.963824
vt 0.404488 0.985474
vt 0.344572 0.683894
vt 0.349824 0.672229
vt 0.320870 0.320591
vt 0.213860 0.950605
vt 0.126361 0.994072
vt 0.714949 0.879347
vt 0.709635 0.949424
vt 0.717984 0.836504
vt 0.821400 0.741597
vt 0.821292 0.710816
vt 0.714013 0.331486
vt 0.714361 0.368219
vt 0.816725 0.227761
vt 0.816306 0.185108
vt 0.792781 0.082677
vt 0.274920 0.183411
vt 0.715989 0.540009
vt 0.358708 0.556242
vt 0.764896 0.229742
vt 0.765852 0.330994
vt 0.817690 0.330503
vt 0.816725 0.227761
vt 0.879503 0.681844
vt 0.878547 0.783097
vt 0.930376 0.785077
vt 0.931341 0.682335
vt 0.822918 0.833869
vt 0.821400 0.741597
vt 0.884102 0.177652
vt 0.883304 0.270810
vt 0.936569 0.178969
vt 0.935051 0.271241
vn 0.0000 1.0000 0.0000
vn -0.4708 0.8822 0.0003
vn -0.3677 0.8526 0.3714
vn 0.0000 0.8857 0.4643
vn 0.6381 -0.6531 0.4077
vn 0.6642 0.7015 0.2582
vn 0.5253 0.5407 0.6571
vn 0.5567 -0.4999 0.6635
vn -0.3673 -0.9301 -0.0098
vn -0.9522 -0.3056 -0.0058
vn -0.9683 -0.2275 0.1032
vn -0.4750 -0.8800 -0.0006
vn -0.0078 0.9898 0.1425
vn -0.6642 0.7015 0.2582
vn -0.5253 0.5407 0.6571
vn -0.1585 0.6018 0.7828
vn 0.0000 -1.0000 -0.0000
vn -0.5014 -0.8652 0.0051
vn 0.2375 -0.6369 0.7335
vn 0.1585 0.6018 0.7828
vn -0.6381 -0.6531 0.4077
vn -0.5567 -0.4999 0.6635
vn 0.0213 -0.9989 0.0428
vn 0.3436 -0.9390 -0.0157
vn 0.6268 -0.7600 -0.1719
vn 0.3677 0.8526 0.3714
vn 0.4708 0.8822 0.0003
vn -0.0000 0.5689 0.8224
vn -0.0000 0.6840 -0.7294
vn -0.0026 0.9026 0.4304
vn -0.7554 0.6489 0.0910
vn 0.0026 0.9026 0.4304
vn -0.0000 0.9000 0.4359
vn 0.0000 0.9920 0.1258
vn 0.0078 0.9898 0.1425
vn 0.9475 -0.3196 -0.0107
vn 0.7074 0.7067 -0.0101
vn 0.7435 0.6682 -0.0255
vn 0.8439 0.5364 -0.0130
vn 0.8307 0.5567 -0.0085
vn -0.0213 -0.9989 0.0428
vn 0.0000 -0.9998 0.0187
vn 0.0000 -0.6565 0.7544
vn -0.2375 -0.6369 0.7335
vn 0.0000 0.5384 0.8427
vn -0.5106 -0.7125 0.4812
vn -0.9552 -0.2564 -0.1477
vn 0.9453 -0.3174 -0.0756
vn 0.5058 -0.7247 0.4679
vn 0.7558 0.6483 0.0917
vn 0.3020 -0.9046 0.3007
vn 0.0000 -1.0000 -0.0015
vn 0.9304 -0.3621 0.0571
vn -0.9422 -0.3298 -0.0586
vn -0.9246 -0.3792 0.0367
vn -0.2587 -0.9232 -0.2844
vn 0.0000 -1.0000 0.0033
vn -0.4766 -0.7900 -0.3856
vn 0.4782 -0.7900 -0.3836
vn -0.3020 -0.9046 0.3007
vn 0.2598 -0.9230 -0.2838
vn 0.0000 0.8802 -0.4747
vn 0.0000 0.7660 0.6428
vn 0.5856 0.7914 -0.1753
vn 0.9106 0.3815 0.1590
vn -0.7074 0.7067 -0.0101
vn -0.7173 0.6967 0.0027
vn -0.8185 0.5744 -0.0106
vn -0.8307 0.5567 -0.0085
vn -0.9128 -0.2824 0.2949
vn -0.5855 0.7915 -0.1752
vn -0.2078 -0.9312 -0.2994
vn 0.0000 -0.9988 -0.0495
vn 0.0000 -1.0000 0.0006
vn 0.4137 -0.7920 -0.4491
vn 0.9213 -0.2699 0.2801
vn 0.9686 -0.2018 0.1456
vn 0.4831 -0.8754 0.0188
vn 0.2049 -0.9339 -0.2931
vn 0.9503 -0.3079 -0.0459
vn 0.2311 -0.9670 -0.1071
vn 0.0000 -0.9133 -0.4072
vn 0.0000 -0.8238 -0.5669
vn -0.0324 -0.7954 -0.6052
vn 0.3540 -0.9245 0.1417
vn 0.5319 -0.5021 -0.6819
vn -0.2338 -0.9662 -0.1086
vn -0.3365 -0.9302 0.1468
vn -0.5319 -0.5021 -0.6819
vn 0.0324 -0.7954 -0.6052
vn -0.9483 -0.3137 -0.0474
vn -0.9106 0.3815 0.1590
vn -0.6716 0.2182 -0.7081
vn -0.5226 0.2799 0.8054
vn -0.6953 0.6991 -0.1669
vn -0.0000 -0.3834 -0.9236
vn -0.0138 -0.3062 -0.9519
vn -0.5985 -0.1442 -0.7880
vn 0.0138 -0.3062 -0.9519
vn 0.5985 -0.1442 -0.7880
vn 0.6716 0.2182 -0.7081
vn 0.0000 0.4444 0.8959
vn 0.0000 0.3438 -0.9391
vn -0.0101 0.3524 -0.9358
vn 0.0101 0.3524 -0.9358
vn 0.5226 0.2799 0.8054
vn 0.6953 0.6991 -0.1669
vn -0.0000 0.9567 -0.2911
vn 0.8493 0.5278 -0.0043
vn -0.8490 0.5284 -0.0048
vn -0.3798 -0.7803 -0.4968
vn 0.3961 0.8657 -0.3061
vn 0.7173 0.6967 0.0027
vn 0.8185 0.5744 -0.0106
vn -0.7435 0.6682 -0.0255
vn -0.8439 0.5364 -0.0130
vn -0.3961 0.8657 -0.3061
vn -0.5369 -0.6127 -0.5799
vn -0.5112 -0.6144 0.6010
vn 0.0000 0.9176 -0.3975
vn -0.5259 -0.5984 -0.6045
vn -0.5638 -0.5953 0.5725
vn 0.5867 -0.5681 0.5771
vn 0.5455 -0.5768 -0.6080
vn 0.5222 -0.6244 0.5809
vn 0.5623 -0.6289 -0.5370
usemtl Material.003
s 1
f 165/1/1 152/2/2 83/3/3 119/4/4
f 19/5/5 36/6/6 11/7/7 12/8/8
f 148/9/9 157/10/10 71/11/11 48/12/12
f 125/13/13 37/14/14 10/15/15 118/16/16
f 164/17/17 122/18/17 31/19/18 148/20/9
f 94/21/19 12/8/8 11/7/7 99/22/20
f 37/14/14 39/23/21 9/24/22 10/15/15
f 101/25/23 19/26/5 12/27/8 94/28/19
f 163/29/17 150/30/24 34/31/25 93/32/17
f 162/33/1 100/34/4 80/35/26 153/36/27
f 112/37/28 33/38/28 16/39/28 113/40/28
f 138/41/29 85/42/29 84/43/29 139/44/29
f 117/45/30 82/46/31 37/14/14 125/13/13
f 98/47/32 72/48/33 30/49/34 96/50/35
f 150/51/24 156/52/36 34/53/25
f 159/54/37 50/55/38 15/56/39 161/57/40
f 114/58/29 22/59/29 27/60/29 115/61/29
f 136/62/28 24/63/28 28/64/28 137/65/28
f 120/66/41 38/67/42 25/68/43 123/69/44
f 123/70/44 25/71/43 26/72/45 118/16/16
f 96/50/35 30/49/34 26/73/45 99/22/20
f 1/74/46 70/75/47 31/76/18
f 6/77/48 5/78/49 34/53/25 81/79/50
f 102/80/51 23/81/52 35/82/17 93/32/17
f 18/83/53 6/77/48 81/79/50 36/6/6
f 2/84/54 17/85/55 37/14/14 82/46/31
f 126/86/56 29/87/57 38/67/42 120/66/41
f 17/85/55 20/88/58 39/23/21 37/14/14
f 40/89/59 18/83/53 36/6/6 19/5/5
f 127/90/60 1/91/46 31/19/18 122/18/17
f 103/92/61 40/93/59 19/26/5 101/25/23
f 121/94/62 86/95/62 21/96/63 128/97/63
f 92/98/62 87/99/64 52/100/65 105/101/63
f 158/102/66 73/103/67 75/104/68 160/105/69
f 41/106/70 71/11/11 91/107/71
f 130/108/72 43/109/73 49/110/74 116/111/74
f 45/112/75 44/113/76 69/114/77 51/115/78
f 106/116/79 45/117/75 51/118/78 97/119/74
f 44/113/76 3/120/80 52/100/65 87/99/64
f 107/121/81 54/122/82 4/123/83 104/124/84
f 3/120/80 53/125/85 46/126/86 52/100/65
f 131/127/87 7/128/88 55/129/89 129/130/90
f 7/131/88 8/132/91 56/133/92 55/134/89
f 8/132/91 41/106/70 91/107/71 56/133/92
f 62/135/93 56/133/92 63/136/94 66/137/95
f 104/124/84 4/123/83 57/138/96 108/139/97
f 129/130/90 55/129/89 61/140/98 133/141/99
f 52/100/65 46/126/86 59/142/100 60/143/101
f 128/97/63 21/96/63 64/144/102 134/145/102
f 55/134/89 56/133/92 62/135/93 61/146/98
f 108/147/97 57/148/96 58/149/103 109/150/104
f 133/151/99 61/146/98 62/135/93 132/152/105
f 110/153/102 65/154/106 68/155/107 111/156/108
f 134/145/102 64/144/102 67/157/108 135/158/108
f 132/152/105 62/135/93 66/137/95 135/158/108
f 52/100/65 60/143/101 68/155/107 65/154/106
f 105/101/63 52/100/65 65/154/106 110/153/102
f 109/150/104 58/149/103 67/159/108 111/156/108
f 156/52/36 69/114/77 87/99/64 151/160/109
f 69/114/77 44/113/76 87/99/64
f 70/75/47 1/74/46 2/84/54 82/46/31
f 157/10/10 70/75/47 82/46/31 149/161/110
f 71/11/11 41/106/70 42/162/111 48/12/12
f 136/62/28 32/163/28 82/46/31 117/45/30
f 137/65/28 28/64/28 74/164/4 119/4/4
f 16/39/28 33/38/28 81/79/50 80/35/26
f 32/163/28 13/165/28 83/3/3 82/46/31
f 112/37/28 24/166/28 72/48/33 98/47/32
f 113/40/28 16/39/28 80/35/26 100/34/4
f 15/56/39 50/55/38 87/99/64 89/167/112
f 77/168/113 76/169/114 80/35/26 81/79/50
f 75/104/68 73/103/67 82/46/31 83/3/3
f 47/170/115 14/171/116 90/172/117 91/107/71
f 158/102/66 47/170/115 91/107/71 149/161/110
f 159/54/37 77/168/113 81/79/50 151/160/109
f 160/105/69 75/104/68 83/3/3 152/2/2
f 161/57/40 15/56/39 89/167/112 153/36/27
f 131/127/87 130/108/72 144/173/118 145/174/119
f 114/58/29 78/175/29 87/99/64 92/98/62
f 115/61/29 27/60/29 88/176/120 95/177/120
f 78/175/29 79/178/29 89/167/112 87/99/64
f 84/43/29 85/42/29 91/107/71 90/172/117
f 138/41/29 22/179/29 86/95/62 121/94/62
f 139/44/29 84/43/29 90/172/117 124/180/120
f 79/178/29 115/61/29 95/177/120 89/167/112
f 22/59/29 114/58/29 92/98/62 86/181/62
f 28/182/28 113/40/28 100/34/4 74/183/4
f 33/38/28 112/37/28 98/47/32 81/79/50
f 60/143/101 109/150/104 111/156/108 68/155/107
f 21/184/63 105/101/63 110/153/102 64/185/102
f 64/185/102 110/153/102 111/156/108 67/159/108
f 59/142/100 108/147/97 109/150/104 60/143/101
f 46/186/86 104/124/84 108/139/97 59/187/100
f 53/188/85 107/121/81 104/124/84 46/186/86
f 43/189/73 106/116/79 97/119/74 49/190/74
f 86/181/62 92/98/62 105/101/63 21/184/63
f 29/191/57 103/92/61 101/25/23 38/192/42
f 5/193/49 102/80/51 93/32/17 34/31/25
f 36/6/6 96/50/35 99/22/20 11/7/7
f 78/175/29 114/58/29 115/61/29 79/178/29
f 81/79/50 98/47/32 96/50/35 36/6/6
f 24/166/28 112/37/28 113/40/28 28/182/28
f 154/194/1 74/183/4 100/34/4 162/33/1
f 155/195/17 163/29/17 93/32/17 35/82/17
f 38/192/42 101/25/23 94/28/19 25/196/43
f 25/197/43 94/21/19 99/22/20 26/73/45
f 27/198/29 139/44/29 124/180/120 88/199/120
f 85/42/29 138/41/29 121/94/62 91/107/71
f 13/165/28 137/65/28 119/4/4 83/3/3
f 24/63/28 136/62/28 117/45/30 72/200/33
f 58/201/103 132/152/105 135/158/108 67/157/108
f 63/136/94 134/145/102 135/158/108 66/137/95
f 57/202/96 133/151/99 132/152/105 58/201/103
f 56/133/92 128/97/63 134/145/102 63/136/94
f 4/203/83 129/130/90 133/141/99 57/204/96
f 54/205/82 131/127/87 129/130/90 4/203/83
f 42/206/111 130/108/72 116/111/74 48/207/12
f 91/107/71 121/94/62 128/97/63 56/133/92
f 23/208/52 127/90/60 122/18/17 35/209/17
f 20/210/58 126/86/56 120/66/41 39/211/21
f 9/24/22 123/70/44 118/16/16 10/15/15
f 39/211/21 120/66/41 123/69/44 9/212/22
f 32/163/28 136/62/28 137/65/28 13/165/28
f 72/200/33 117/45/30 125/13/13 30/213/34
f 22/179/29 138/41/29 139/44/29 27/198/29
f 155/214/17 35/209/17 122/18/17 164/17/17
f 30/213/34 125/13/13 118/16/16 26/72/45
f 154/215/1 165/1/1 119/4/4 74/164/4
f 103/92/61 29/191/57 23/81/52 102/80/51
f 29/87/57 126/86/56 127/90/60 23/208/52
f 127/90/60 126/86/56 140/216/121 141/217/122
f 1/91/46 127/90/60 141/217/122 2/218/54
f 126/86/56 20/210/58 17/219/55 140/216/121
f 2/218/54 141/217/122 140/216/121 17/219/55
f 103/92/61 102/80/51 142/220/123 143/221/124
f 40/93/59 103/92/61 143/221/124 18/222/53
f 102/80/51 5/193/49 6/223/48 142/220/123
f 18/222/53 143/221/124 142/220/123 6/223/48
f 131/127/87 54/205/82 43/109/73 130/108/72
f 54/122/82 107/121/81 106/116/79 43/189/73
f 7/128/88 131/127/87 145/174/119 8/224/91
f 130/108/72 42/206/111 41/225/70 144/173/118
f 106/116/79 107/121/81 147/226/125 146/227/126
f 107/121/81 53/188/85 3/228/80 147/226/125
f 45/117/75 106/116/79 146/227/126 44/229/76
f 44/229/76 146/227/126 147/226/125 3/228/80
f 8/224/91 145/174/119 144/173/118 41/225/70
f 88/199/120 124/180/120 165/1/1 154/215/1
f 49/110/74 155/214/17 164/17/17 116/111/74
f 49/190/74 97/119/74 163/29/17 155/195/17
f 88/176/120 154/194/1 162/33/1 95/177/120
f 76/169/114 161/57/40 153/36/27 80/35/26
f 14/171/116 160/105/69 152/2/2 90/172/117
f 50/55/38 159/54/37 151/160/109 87/99/64
f 73/103/67 158/102/66 149/161/110 82/46/31
f 71/11/11 157/10/10 149/161/110 91/107/71
f 34/53/25 156/52/36 151/160/109 81/79/50
f 47/170/115 158/102/66 160/105/69 14/171/116
f 77/168/113 159/54/37 161/57/40 76/169/114
f 51/115/78 69/114/77 156/52/36 150/51/24
f 95/177/120 162/33/1 153/36/27 89/167/112
f 97/119/74 51/118/78 150/30/24 163/29/17
f 116/111/74 164/17/17 148/20/9 48/207/12
f 31/76/18 70/75/47 157/10/10 148/9/9
f 124/180/120 90/172/117 152/2/2 165/1/1
