# Blender v3.6.4 OBJ File: 'Car1.blend'
# www.blender.org
mtllib Rocket.mtl
o Cylinder.002
v -1.641223 0.457467 -0.136623
v 1.098700 0.514058 -0.000000
v -1.641223 0.420085 -0.226871
v 1.098700 0.363494 -0.363494
v -1.641223 -0.136623 -0.457467
v 1.098700 -0.000000 -0.514058
v -1.641223 -0.226871 -0.420085
v 1.098700 -0.363494 -0.363494
v -1.641223 -0.457467 0.136623
v 1.098700 -0.514058 -0.000000
v -1.641223 -0.420085 0.226871
v 1.098700 -0.363494 0.363494
v -1.641223 0.136623 0.457467
v 1.098700 -0.000000 0.514058
v -1.641223 0.226871 0.420085
v 1.098700 0.363494 0.363494
v 1.756316 0.125509 -0.125509
v 1.756316 0.177497 0.000000
v 1.756316 -0.000000 -0.177497
v 1.756316 -0.125509 -0.125509
v 1.756316 -0.177497 0.000000
v 1.756316 -0.125509 0.125510
v 1.756316 -0.000000 0.177497
v 1.756316 0.125509 0.125510
v 1.647915 -0.000000 -0.286885
v 1.647915 -0.202858 -0.202858
v 1.647915 -0.202858 0.202859
v 1.647915 -0.000000 0.286885
v 1.647915 -0.286885 0.000000
v 1.647915 0.202858 0.202859
v 1.647915 0.202858 -0.202858
v 1.647915 0.286885 0.000000
v -1.113715 0.457467 -0.136623
v -1.113715 0.420085 -0.226871
v -1.113715 -0.136623 -0.457467
v -1.113715 -0.226871 -0.420085
v -1.113715 -0.457467 0.136623
v -1.113715 -0.420085 0.226871
v -1.113715 0.136623 0.457467
v -1.113715 0.226871 0.420085
v -1.789103 0.356121 0.000000
v -1.789103 0.251816 -0.251816
v -0.965835 0.363494 -0.363494
v -0.965835 0.000000 -0.514058
v -1.789103 0.000000 -0.356121
v -1.789103 -0.251816 -0.251816
v -0.965836 -0.363494 -0.363494
v -0.965835 -0.514058 0.000000
v -1.789103 -0.356121 0.000000
v -1.789103 -0.251816 0.251816
v -0.965835 -0.363494 0.363494
v -0.965835 0.000000 0.514058
v -1.789103 0.000000 0.356121
v -1.789103 0.251816 0.251816
v -0.965835 0.363494 0.363494
v -0.965835 0.514058 0.000000
v -2.316740 0.641376 -0.218625
v -2.316740 0.603994 -0.297224
v -1.789232 0.603994 -0.297224
v -1.789232 -0.212801 -0.638964
v -2.316740 -0.212801 -0.638964
v -2.316740 -0.303048 -0.606407
v -1.789232 -0.303048 -0.606407
v -1.789232 -0.641376 0.218625
v -2.316740 -0.641376 0.218625
v -2.316740 -0.603994 0.297225
v -1.789232 -0.603994 0.297225
v -1.789232 0.212801 0.638964
v -2.316740 0.212801 0.638964
v -2.316740 0.303049 0.606407
v -1.789232 0.303049 0.606407
v -1.789232 0.641376 -0.218625
v 1.756316 -0.000000 0.000000
v -1.789103 0.514058 0.000000
v -1.789103 0.363494 -0.363494
v -1.789103 0.000000 -0.514058
v -1.789103 -0.363494 -0.363494
v -1.789103 -0.514058 0.000000
v -1.789103 -0.363494 0.363494
v -1.789103 0.000000 0.514058
v -1.789103 0.363494 0.363494
v -1.233166 -0.251816 -0.251816
v -1.233167 0.000000 0.000000
v -1.233166 0.251816 -0.251816
v -1.233166 -0.251816 0.251816
v -1.233166 0.251816 0.251816
v -1.233166 0.356121 0.000000
v -1.233166 0.000000 -0.356121
v -1.233166 -0.356121 0.000000
v -1.233166 0.000000 0.356121
vt 0.550988 0.364823
vt 0.561579 0.808882
vt 0.481215 0.818973
vt 0.461571 0.365057
vt 0.396725 0.844731
vt 0.368527 0.363739
vt 0.368079 0.347219
vt 0.368079 0.830196
vt 0.278972 0.809468
vt 0.276152 0.355989
vt 0.196104 0.804805
vt 0.182853 0.360966
vt 0.112963 0.815949
vt 0.092302 0.361109
vt 0.026690 0.841411
vt 0.000224 0.358775
vt 0.244150 0.930829
vt 0.289510 0.962780
vt 0.252744 0.988511
vt 0.228061 0.961813
vt 0.737977 0.351660
vt 0.737977 0.840141
vt 0.644292 0.814616
vt 0.644691 0.360209
vt 0.548721 0.150865
vt 0.474741 0.153006
vt 0.492933 0.009840
vt 0.552702 0.014452
vt 0.595345 0.962839
vt 0.616739 0.987564
vt 0.568803 0.998398
vt 0.567976 0.955208
vt 0.110557 0.970343
vt 0.154190 0.934234
vt 0.171070 0.963862
vt 0.149487 0.991229
vt 0.198502 0.922498
vt 0.199125 0.954627
vt 0.610619 0.933791
vt 0.651895 0.966490
vt 0.481407 0.968309
vt 0.523203 0.934776
vt 0.540513 0.963671
vt 0.518377 0.990740
vt 0.566920 0.924214
vt 0.627760 0.182113
vt 0.549451 0.190962
vt 0.853691 0.396159
vt 0.850859 0.528571
vt 0.807335 0.368780
vt 0.780953 0.260367
vt 0.102348 0.185314
vt 0.019007 0.164726
vt 0.889724 0.398486
vt 0.867673 0.398486
vt 0.867882 0.239658
vt 0.889537 0.239374
vt 0.259661 0.181322
vt 0.181373 0.189546
vt 0.761423 0.809195
vt 0.759342 0.677117
vt 0.832620 0.541426
vt 0.805811 0.649958
vt 0.469809 0.186104
vt 0.382689 0.166196
vt 0.852461 0.138477
vt 0.849629 0.270890
vt 0.806104 0.111098
vt 0.779722 0.002685
vt 0.519929 0.219630
vt 0.499349 0.218823
vt 0.496389 0.331815
vt 0.329582 0.316316
vt 0.313305 0.200010
vt 0.340373 0.159948
vt 0.292537 0.203908
vt 0.307451 0.318419
vt 0.150422 0.327913
vt 0.152283 0.217726
vt 0.132005 0.216918
vt 0.128891 0.327617
vt 0.698885 0.320361
vt 0.683468 0.201606
vt 0.711177 0.160031
vt 0.662012 0.205681
vt 0.676471 0.322371
vt 0.518205 0.331918
vt 0.786420 0.115929
vt 0.758111 0.008036
vt 0.960165 0.462643
vt 0.931806 0.570509
vt 0.913869 0.566087
vt 0.940690 0.457760
vt 0.787650 0.373611
vt 0.759342 0.265718
vt 0.852148 0.546499
vt 0.823760 0.654253
vt 0.825528 0.277144
vt 0.758111 0.162519
vt 0.960207 0.181483
vt 0.938156 0.181483
vt 0.938365 0.022656
vt 0.960020 0.022371
vt 0.852148 0.700778
vt 0.785449 0.815420
vt 0.826758 0.534826
vt 0.759342 0.420201
vt 0.960165 0.617050
vt 0.893233 0.731623
vt 0.869208 0.725354
vt 0.913101 0.192397
vt 0.891051 0.192562
vt 0.891051 0.033445
vt 0.910697 0.033582
vt 0.867361 0.593202
vt 0.947552 0.357044
vt 0.925502 0.357044
vt 0.926692 0.197931
vt 0.946337 0.198216
vt 0.319107 0.132955
vt 0.252719 0.148615
vt 0.245512 0.010662
vt 0.304321 0.005540
vt 0.180721 0.149725
vt 0.108094 0.151740
vt 0.122547 0.007756
vt 0.184388 0.011321
vt 0.685697 0.128395
vt 0.621520 0.149956
vt 0.611456 0.013749
vt 0.667216 0.007375
vt 0.200708 0.999776
vt 0.408264 0.132914
vt 0.040147 0.136956
vt 0.986871 0.914181
vt 0.930247 0.970804
vt 0.890209 0.874142
vt 0.986871 0.834104
vt 0.850170 0.970804
vt 0.793547 0.914181
vt 0.850170 0.777480
vt 0.930247 0.777480
vt 0.793547 0.834104
vt 0.055510 0.000224
vt 0.427878 0.000224
vn 0.0000 1.0000 -0.0000
vn 0.1863 0.9825 -0.0000
vn 0.1863 0.6947 -0.6947
vn -0.0000 0.7071 -0.7071
vn 0.1863 0.0000 -0.9825
vn -0.0000 -0.0000 -1.0000
vn 0.1863 -0.6947 -0.6947
vn -0.0000 -0.7071 -0.7071
vn 0.1863 -0.9825 -0.0000
vn -0.0000 -1.0000 0.0000
vn 0.1863 -0.6947 0.6947
vn 0.0000 -0.7071 0.7071
vn 0.1863 0.0000 0.9825
vn 0.0000 0.0000 1.0000
vn 0.5359 -0.5970 -0.5970
vn 0.5359 0.0000 -0.8443
vn 0.8901 0.0000 -0.4557
vn 0.8901 -0.3222 -0.3222
vn 0.1863 0.6947 0.6947
vn 0.0000 0.7071 0.7071
vn -0.8042 -0.5944 -0.0000
vn -0.8042 -0.4203 0.4203
vn -0.6303 -0.5490 0.5490
vn -0.6303 -0.7764 -0.0000
vn 0.8901 0.3222 0.3222
vn 0.8901 -0.0000 0.4557
vn 1.0000 0.0000 0.0000
vn 0.8901 0.4557 0.0000
vn 0.5359 -0.0000 0.8443
vn 0.5359 -0.5970 0.5970
vn 0.8901 -0.3222 0.3222
vn 0.5359 -0.8443 0.0000
vn 0.8901 -0.4557 0.0000
vn 0.5359 0.5970 0.5970
vn 0.5359 0.5970 -0.5970
vn 0.8901 0.3222 -0.3222
vn 0.5359 0.8443 0.0000
vn -0.6303 0.5490 0.5490
vn -0.6303 0.7764 0.0000
vn -0.1030 0.3195 -0.9420
vn 0.0710 -0.3341 -0.9398
vn 0.1038 0.3598 -0.9272
vn -0.8090 0.5017 -0.3062
vn -0.6303 -0.0000 0.7764
vn -0.1020 0.8969 0.4303
vn -0.1030 -0.3195 0.9420
vn -0.8090 -0.5017 0.3062
vn -0.8593 0.5088 -0.0513
vn -0.6303 -0.5490 -0.5490
vn 0.0708 0.9008 -0.4285
vn -0.1014 0.4502 -0.8872
vn -0.8058 -0.1429 -0.5747
vn 0.1029 0.4103 -0.9061
vn -0.6303 0.5490 -0.5490
vn -0.6303 -0.0000 -0.7764
vn 0.0710 0.3341 0.9398
vn 0.1038 -0.3598 0.9272
vn -0.1004 0.9420 0.3202
vn -0.1020 -0.8969 -0.4303
vn 0.0711 -0.4191 -0.9051
vn 0.0708 -0.9363 0.3439
vn -0.1004 -0.9420 -0.3202
vn -0.1014 -0.4502 0.8872
vn 0.0708 -0.9008 0.4285
vn 0.0711 0.4191 0.9051
vn 0.0708 0.9363 -0.3439
vn 0.1062 0.8955 0.4323
vn -0.8643 -0.3225 -0.3858
vn 0.1055 -0.9430 -0.3157
vn 0.1029 -0.4103 0.9061
vn -0.8058 0.1429 0.5747
vn 0.1062 -0.8955 -0.4323
vn -0.8593 -0.5088 0.0513
vn -0.8643 0.3225 0.3858
vn 0.1055 0.9430 0.3157
vn -0.8042 0.0000 0.5944
vn -0.8042 0.4203 0.4203
vn -0.8042 0.5944 -0.0000
vn -0.8042 0.4203 -0.4203
vn -0.8042 0.0000 -0.5944
vn -0.8042 -0.4203 -0.4203
vn -1.0000 0.0000 -0.0000
usemtl Material.007
s 1
f 56/1/1 2/2/2 4/3/3 43/4/4
f 43/4/4 4/3/3 6/5/5 44/6/6
f 44/7/6 6/8/5 8/9/7 47/10/8
f 47/10/8 8/9/7 10/11/9 48/12/10
f 48/12/10 10/11/9 12/13/11 51/14/12
f 51/14/12 12/13/11 14/15/13 52/16/14
f 26/17/15 25/18/16 19/19/17 20/20/18
f 52/21/14 14/22/13 16/23/19 55/24/20
f 55/24/20 16/23/19 2/2/2 56/1/1
f 41/25/21 42/26/22 84/27/23 87/28/24
f 24/29/25 23/30/26 73/31/27 18/32/28
f 28/33/29 27/34/30 22/35/31 23/36/26
f 29/37/32 26/17/15 20/20/18 21/38/33
f 30/39/34 28/40/29 23/30/26 24/29/25
f 25/41/16 31/42/35 17/43/36 19/44/17
f 27/34/30 29/37/32 21/38/33 22/35/31
f 32/45/37 30/39/34 24/29/25 18/32/28
f 31/42/35 32/45/37 18/32/28 17/43/36
f 4/3/3 2/2/2 32/45/37 31/42/35
f 2/2/2 16/23/19 30/39/34 32/45/37
f 12/13/11 10/11/9 29/37/32 27/34/30
f 6/5/5 4/3/3 31/42/35 25/41/16
f 16/23/19 14/22/13 28/40/29 30/39/34
f 10/11/9 8/9/7 26/17/15 29/37/32
f 14/15/13 12/13/11 27/34/30 28/33/29
f 8/9/7 6/8/5 25/18/16 26/17/15
f 81/46/38 55/24/20 56/1/1 74/47/39
f 5/48/40 35/49/41 60/50/42 61/51/43
f 79/52/23 51/14/12 52/16/14 80/53/44
f 15/54/45 13/55/46 69/56/47 70/57/48
f 77/58/49 47/10/8 48/12/10 78/59/24
f 34/60/50 3/61/51 58/62/52 59/63/53
f 75/64/54 43/4/4 44/6/6 76/65/55
f 13/66/46 39/67/56 68/68/57 69/69/47
f 1/70/58 3/71/51 75/64/54 74/47/39
f 3/71/51 34/72/50 43/4/4 75/64/54
f 35/73/41 5/74/40 76/75/55 44/7/6
f 5/74/40 7/76/59 77/58/49 76/75/55
f 7/76/59 36/77/60 47/10/8 77/58/49
f 37/78/61 9/79/62 78/59/24 48/12/10
f 9/79/62 11/80/63 79/52/23 78/59/24
f 11/80/63 38/81/64 51/14/12 79/52/23
f 39/82/56 13/83/46 80/84/44 52/21/14
f 13/83/46 15/85/45 81/46/38 80/84/44
f 15/85/45 40/86/65 55/24/20 81/46/38
f 33/87/66 1/70/58 74/47/39 56/1/1
f 40/86/65 39/82/56 52/21/14 55/24/20
f 38/81/64 37/78/61 48/12/10 51/14/12
f 36/77/60 35/73/41 44/7/6 47/10/8
f 34/72/50 33/87/66 56/1/1 43/4/4
f 69/69/47 68/68/57 71/88/67 70/89/48
f 65/90/68 64/91/69 67/92/70 66/93/71
f 61/51/43 60/50/42 63/94/72 62/95/73
f 57/96/74 72/97/75 59/63/53 58/62/52
f 40/98/65 15/99/45 70/89/48 71/88/67
f 7/100/59 5/101/40 61/102/43 62/103/73
f 1/104/58 33/105/66 72/97/75 57/96/74
f 36/106/60 7/107/59 62/95/73 63/94/72
f 39/67/56 40/98/65 71/88/67 68/68/57
f 9/108/62 37/109/61 64/91/69 65/90/68
f 37/109/61 38/110/64 67/92/70 64/91/69
f 11/111/63 9/112/62 65/113/68 66/114/71
f 35/49/41 36/106/60 63/94/72 60/50/42
f 38/110/64 11/115/63 66/93/71 67/92/70
f 3/116/51 1/117/58 57/118/74 58/119/52
f 33/105/66 34/60/50 59/63/53 72/97/75
f 45/120/76 46/121/77 82/122/38 88/123/44
f 49/124/78 50/125/79 85/126/54 89/127/39
f 53/128/80 54/129/81 86/130/49 90/131/55
f 23/36/26 22/35/31 21/38/33 73/132/27
f 18/32/28 73/31/27 19/44/17 17/43/36
f 73/132/27 21/38/33 20/20/18 19/19/17
f 42/26/22 41/25/21 74/47/39 75/64/54
f 45/133/76 42/26/22 75/64/54 76/65/55
f 46/121/77 45/120/76 76/75/55 77/58/49
f 49/124/78 46/121/77 77/58/49 78/59/24
f 50/125/79 49/124/78 78/59/24 79/52/23
f 53/134/80 50/125/79 79/52/23 80/53/44
f 54/129/81 53/128/80 80/84/44 81/46/38
f 41/25/21 54/129/81 81/46/38 74/47/39
f 88/135/44 82/136/38 83/137/82 84/138/23
f 82/136/38 89/139/39 85/140/54 83/137/82
f 84/138/23 83/137/82 86/141/49 87/142/24
f 83/137/82 85/140/54 90/143/55 86/141/49
f 54/129/81 41/25/21 87/28/24 86/130/49
f 50/125/79 53/134/80 90/144/55 85/126/54
f 46/121/77 49/124/78 89/127/39 82/122/38
f 42/26/22 45/133/76 88/145/44 84/27/23
