# Blender v3.6.4 OBJ File: 'Car1.blend'
# www.blender.org
mtllib Wheel.mtl
o Plane.004_Plane.003
v 0.282405 0.287484 0.194683
v 0.282405 -0.287484 0.194683
v -0.282406 0.287484 0.194683
v -0.282406 -0.287484 0.194683
v -0.000000 0.350482 0.210492
v 0.344290 -0.000000 0.210492
v -0.000000 -0.350482 0.210492
v -0.344291 -0.000000 0.210492
v -0.360416 -0.354300 0.113409
v 0.360415 0.354300 0.113409
v -0.360416 0.354300 0.113409
v 0.360415 -0.354300 0.113409
v -0.000000 -0.000000 0.243670
v -0.000001 0.487537 0.114968
v -0.000001 -0.487537 0.114968
v 0.495952 -0.000000 0.114968
v -0.495953 -0.000000 0.114968
v -0.282406 0.287484 -0.238184
v 0.282405 0.287484 -0.238184
v 0.282405 -0.287484 -0.238184
v -0.282406 -0.287484 -0.238184
v -0.376541 0.370151 -0.021750
v -0.376541 -0.370151 -0.021750
v 0.376540 -0.370151 -0.021750
v 0.376540 0.370151 -0.021750
v -0.000001 0.350482 -0.253993
v 0.344290 0.000000 -0.253993
v -0.000001 -0.350482 -0.253993
v -0.344291 0.000000 -0.253993
v -0.360416 0.354300 -0.156909
v -0.360416 -0.354300 0.113409
v 0.360415 -0.354300 -0.156909
v 0.360415 0.354300 0.113409
v -0.360416 0.354300 0.113409
v -0.360416 -0.354300 -0.156909
v 0.360415 -0.354300 0.113409
v 0.360415 0.354300 -0.156909
v -0.000001 0.508958 -0.021750
v -0.000001 -0.508958 -0.021750
v 0.517743 0.000000 -0.021750
v -0.517744 0.000000 -0.021750
v -0.000001 0.000000 -0.287171
v -0.495953 0.000000 -0.158468
v 0.495952 0.000000 -0.158468
v -0.000001 -0.487537 -0.158468
v -0.000001 0.487537 -0.158468
v -0.000001 0.487537 0.114968
v -0.000001 -0.487537 0.114968
v 0.495952 0.000000 0.114968
v -0.495954 0.000000 0.114968
vt 0.754509 0.437072
vt 0.660041 0.421176
vt 0.713088 0.295256
vt 0.818743 0.339767
vt 0.582676 0.364682
vt 0.607434 0.250746
vt 0.671668 0.153440
vt 0.766136 0.169337
vt 0.843501 0.225831
vt 0.628380 0.496329
vt 0.527014 0.391934
vt 0.773890 0.495939
vt 0.797797 0.094184
vt 0.899163 0.198579
vt 0.652287 0.094574
vt 0.888275 0.369060
vt 0.537902 0.221453
vt 0.337860 0.550706
vt 0.401605 0.647271
vt 0.296755 0.691443
vt 0.244111 0.566482
vt 0.426175 0.760340
vt 0.349399 0.816403
vt 0.255650 0.832179
vt 0.191905 0.735614
vt 0.167335 0.622545
vt 0.208282 0.976786
vt 0.030770 0.803498
vt 0.122902 0.764684
vt 0.236416 0.890598
vt 0.030770 0.555426
vt 0.112097 0.595501
vt 0.385228 0.406099
vt 0.562740 0.579388
vt 0.470608 0.618201
vt 0.357093 0.492288
vt 0.562740 0.827459
vt 0.481413 0.787385
vt 0.412982 0.967331
vt 0.380818 0.890984
vt 0.180528 0.415555
vt 0.212691 0.491901
vt 0.628380 0.496329
vt 0.773890 0.495939
vt 0.802240 0.582789
vt 0.595970 0.573261
vt 0.527014 0.391934
vt 0.445063 0.432316
vt 0.797797 0.094184
vt 0.652287 0.094574
vt 0.623937 0.007724
vt 0.830207 0.017252
vt 0.899163 0.198579
vt 0.981113 0.158197
vt 0.888275 0.369060
vt 0.981113 0.408171
vt 0.537902 0.221453
vt 0.445063 0.182342
vn 0.2970 0.3128 0.9022
vn 0.0000 0.3908 0.9205
vn 0.0000 0.0000 1.0000
vn 0.3683 0.0000 0.9297
vn -0.2970 0.3128 0.9022
vn -0.3683 0.0000 0.9297
vn -0.2970 -0.3128 0.9022
vn 0.0000 -0.3908 0.9205
vn 0.2970 -0.3128 0.9022
vn 0.1603 0.9832 0.0876
vn -0.1518 0.1547 0.9762
vn 0.7470 0.6418 -0.1737
vn 0.0746 -0.9774 -0.1977
vn 0.7191 -0.6696 -0.1859
vn -0.1948 -0.1401 0.9708
vn 0.9829 -0.0100 -0.1840
vn -0.2370 -0.0005 0.9715
vn 0.2970 0.3128 -0.9022
vn 0.3683 -0.0000 -0.9297
vn -0.0000 -0.0000 -1.0000
vn 0.0000 0.3908 -0.9205
vn 0.2970 -0.3128 -0.9022
vn -0.0000 -0.3908 -0.9205
vn -0.2970 -0.3128 -0.9022
vn -0.3683 -0.0000 -0.9297
vn -0.2970 0.3128 -0.9022
vn -0.7035 -0.7107 -0.0000
vn -1.0000 0.0000 -0.0000
vn -0.8688 -0.0000 -0.4952
vn -0.6142 -0.6163 -0.4929
vn -0.7035 0.7107 -0.0000
vn -0.6142 0.6163 -0.4929
vn 0.7035 0.7107 -0.0000
vn 1.0000 0.0000 0.0000
vn 0.8688 0.0000 -0.4952
vn 0.6142 0.6163 -0.4929
vn 0.7035 -0.7107 0.0000
vn 0.6142 -0.6163 -0.4929
vn 0.0000 -1.0000 -0.0000
vn -0.0000 -0.8780 -0.4787
vn -0.0000 1.0000 -0.0000
vn 0.0000 0.8780 -0.4787
vn 0.0078 0.7240 0.6897
vn 0.5057 0.7222 -0.4719
vn -0.5029 0.5225 0.6885
vn -0.0364 -0.7166 0.6965
vn -0.5265 -0.5149 0.6765
vn 0.4946 -0.5279 -0.6905
vn 0.7453 0.0101 -0.6667
vn -0.7189 -0.0000 0.6951
usemtl Material.009
s 1
f 1/1/1 5/2/2 13/3/3 6/4/4
f 5/2/2 3/5/5 8/6/6 13/3/3
f 13/3/3 8/6/6 4/7/7 7/8/8
f 6/4/4 13/3/3 7/8/8 2/9/9
f 3/5/5 5/2/2 14/10/10 11/11/11
f 5/2/2 1/1/1 10/12/12 14/10/10
f 2/9/9 7/8/8 15/13/13 12/14/14
f 7/8/8 4/7/7 9/15/15 15/13/13
f 1/1/1 6/4/4 16/16/16 10/12/12
f 6/4/4 2/9/9 12/14/14 16/16/16
f 4/7/7 8/6/6 17/17/17 9/15/15
f 8/6/6 3/5/5 11/11/11 17/17/17
f 19/18/18 27/19/19 42/20/20 26/21/21
f 27/19/19 20/22/22 28/23/23 42/20/20
f 42/20/20 28/23/23 21/24/24 29/25/25
f 26/21/21 42/20/20 29/25/25 18/26/26
f 23/27/27 41/28/28 43/29/29 35/30/30
f 41/28/28 22/31/31 30/32/32 43/29/29
f 43/29/29 30/32/32 18/26/26 29/25/25
f 35/30/30 43/29/29 29/25/25 21/24/24
f 25/33/33 40/34/34 44/35/35 37/36/36
f 40/34/34 24/37/37 32/38/38 44/35/35
f 44/35/35 32/38/38 20/22/22 27/19/19
f 37/36/36 44/35/35 27/19/19 19/18/18
f 24/37/37 39/39/39 45/40/40 32/38/38
f 39/39/39 23/27/27 35/30/30 45/40/40
f 45/40/40 35/30/30 21/24/24 28/23/23
f 32/38/38 45/40/40 28/23/23 20/22/22
f 22/31/31 38/41/41 46/42/42 30/32/32
f 38/41/41 25/33/33 37/36/36 46/42/42
f 46/42/42 37/36/36 19/18/18 26/21/21
f 30/32/32 46/42/42 26/21/21 18/26/26
f 47/43/43 33/44/44 25/45/33 38/46/41
f 34/47/45 47/43/43 38/46/41 22/48/31
f 48/49/46 31/50/47 23/51/27 39/52/39
f 36/53/48 48/49/46 39/52/39 24/54/37
f 49/55/49 36/53/48 24/54/37 40/56/34
f 33/44/44 49/55/49 40/56/34 25/45/33
f 50/57/50 34/47/45 22/48/31 41/58/28
f 31/50/47 50/57/50 41/58/28 23/51/27
f 47/43/43 34/47/45 11/11/11 14/10/10
f 34/47/45 50/57/50 17/17/17 11/11/11
f 50/57/50 31/50/47 9/15/15 17/17/17
f 31/50/47 48/49/46 15/13/13 9/15/15
f 48/49/46 36/53/48 12/14/14 15/13/13
f 36/53/48 49/55/49 16/16/16 12/14/14
f 49/55/49 33/44/44 10/12/12 16/16/16
f 33/44/44 47/43/43 14/10/10 10/12/12
